{"title":"Big.Man.On.Campus.1989.VHSRip.XviD-Gurij@","uid":8226329,"size":1271880704,"categoryP":"video","categoryS":"movies","magnet":"?xt=urn:btih:ada1dc3b0f24aed354d820afc3681a98d79fd5f1&amp;dn=Big.Man.On.Campus.1989.VHSRip.XviD-Gurij%40&amp;tr=udp%3A%2F%2Ftracker.openbittorrent.com%3A80&amp;tr=udp%3A%2F%2Fopen.demonii.com%3A1337&amp;tr=udp%3A%2F%2Ftracker.coppersurfer.tk%3A6969&amp;tr=udp%3A%2F%2Fexodus.desync.com%3A6969","seeders":1,"leechers":3,"uploader":"LochDhueDude","files":-1,"time":1362606929,"description":"General\nComplete name                            : Big.Man.On.Campus.1989.VHSRip.XviD-Gurij@.avi\nFormat                                   : AVI\nFormat/Info                              : Audio Video Interleave\nFile size                                : 1.18 GiB\nDuration                                 : 1h 43mn\nOverall bit rate                         : 1 642 Kbps\n\nVideo\nID                                       : 0\nFormat                                   : MPEG-4 Visual\nFormat profile                           : Simple@L3\nFormat settings, BVOP                    : Yes\nFormat settings, QPel                    : No\nFormat settings, GMC                     : No warppoints\nFormat settings, Matrix                  : Default (H.263)\nCodec ID                                 : XVID\nCodec ID/Hint                            : XviD\nDuration                                 : 1h 43mn\nBit rate                                 : 1 500 Kbps\nWidth                                    : 720 pixels\nHeight                                   : 480 pixels\nDisplay aspect ratio                     : 3:2\nFrame rate                               : 29.970 fps\nStandard                                 : NTSC\nColor space                              : YUV\nChroma subsampling                       : 4:2:0\nBit depth                                : 8 bits\nScan type                                : Progressive\nCompression mode                         : Lossy\nBits/(Pixel*Frame)                       : 0.145\nStream size                              : 1.08 GiB (91%)\n\nAudio\nID                                       : 1\nFormat                                   : MPEG Audio\nFormat version                           : Version 1\nFormat profile                           : Layer 3\nMode                                     : Joint stereo\nCodec ID                                 : 55\nCodec ID/Hint                            : MP3\nDuration                                 : 1h 43mn\nBit rate mode                            : Constant\nBit rate                                 : 128 Kbps\nChannel(s)                               : 2 channels\nSampling rate                            : 48.0 KHz\nCompression mode                         : Lossy\nStream size                              : 94.5 MiB (8%)\nAlignment                                : Aligned on interleaves\nInterleave, duration                     : 24 ms (0.72 video frame)\nWriting library                          : LAME3.97\nScreenshot                               : http://lh4.googleusercontent.com/-EdfbODZbIVk/USprAYMPTvI/AAAAAAAAA4U/0G1RdorrBco/s902/Big.Man.On.Campus.1989.VHSRip..jpg","torrent":{"xt":"urn:btih:ada1dc3b0f24aed354d820afc3681a98d79fd5f1","amp;dn":"Big.Man.On.Campus.1989.VHSRip.XviD-Gurij%40","amp;tr":["udp%3A%2F%2Ftracker.openbittorrent.com%3A80","udp%3A%2F%2Fopen.demonii.com%3A1337","udp%3A%2F%2Ftracker.coppersurfer.tk%3A6969","udp%3A%2F%2Fexodus.desync.com%3A6969"],"infoHash":"ada1dc3b0f24aed354d820afc3681a98d79fd5f1","infoHashBuffer":{"type":"Buffer","data":[173,161,220,59,15,36,174,211,84,216,32,175,195,104,26,152,215,159,213,241]},"announce":[],"urlList":[]}}